<?xml version="1.0" encoding="UTF-8" standalone="no"?>
<svg width="112" height="112" xmlns="http://www.w3.org/2000/svg">
    <g fill-rule="nonzero" fill="none">
        <path d="M69.477 34.624c4.931-8.437 2.003-19.221-6.532-24.09-8.536-4.87-19.45-1.979-24.382 6.458-.223.376-.421.765-.612 1.155l-16.65 28.5a17.342 17.342 0 0 0-1.02 1.755L2.978 78.262l30.908 17.332 17.211-29.611c.185-.28.364-.568.536-.861.172-.294.332-.594.485-.888l16.656-28.506c.243-.364.485-.728.702-1.104z"
              fill="#FBBC04"/>
        <path d="M34.027 95.498c-4.9 8.57-15.948 11.73-24.439 6.777-8.49-4.952-11.495-15.68-6.596-24.25 4.9-8.57 15.859-11.736 24.343-6.79 8.485 4.946 11.598 15.692 6.692 24.263z"
              fill="#34A853"/>
        <path d="M101.935 41.095c-8.44-4.863-19.234-1.978-24.107 6.445L60.182 78.044c-4.873 8.424-1.984 19.196 6.463 24.059 8.44 4.863 19.233 1.978 24.107-6.446l17.645-30.504c4.868-8.423 1.978-19.195-6.462-24.058z"
              fill="#4285F4"/>
    </g>
</svg>